<svg id="Camada_1" data-name="Camada 1" xmlns="http://www.w3.org/2000/svg" viewBox="0 0 351 79"><defs><style>.cls-1{fill:#059;}.cls-2{fill:#fff;}</style></defs><title>Sem título-1</title><rect class="cls-1" width="351" height="79" rx="12" ry="12"/><path class="cls-2" d="M59,21.2h4.8l2,.3,1.8.3,1.8.6,1.6.9a7.3,7.3,0,0,1,2.1,2.2,6.8,6.8,0,0,1,1.1,2.9,12.2,12.2,0,0,1,.1,3.3,14.1,14.1,0,0,1-.5,3.5c-.3,1-.7,2.1-1.1,3.1A18.7,18.7,0,0,1,71,41.5a14.9,14.9,0,0,1-2.3,2.7,13.4,13.4,0,0,1-2.9,2.3l-.9.5-.9.4-1.9.8-1.9.4-2.8.4-2.7.2H40.9l-4.1,15h-9l11.5-43ZM46.3,28.8,42.9,41.6h11a11.2,11.2,0,0,0,3.2-.4,11.5,11.5,0,0,0,2.8-.9,6.3,6.3,0,0,0,2.4-1.9,9.8,9.8,0,0,0,1.4-3.1,7.1,7.1,0,0,0,.3-3.4A2.6,2.6,0,0,0,62.5,30l-2.6-.8a14.8,14.8,0,0,0-3.1-.3H46.3Z" transform="translate(-2 -3)"/><path class="cls-2" d="M88.2,38.6h16.6l4.7-17.4h9.1L107,64.2H98l4.8-18H86.2l-4.8,18H72.3l11.5-43h9.1Z" transform="translate(-2 -3)"/><path class="cls-2" d="M147.1,21.2h4.8l2,.3,1.9.3,1.8.6,1.6.9a7.3,7.3,0,0,1,2.1,2.2,8.3,8.3,0,0,1,1,2.9,12.2,12.2,0,0,1,.2,3.3,21.4,21.4,0,0,1-.6,3.5,12.8,12.8,0,0,1-1.1,3.1,13.4,13.4,0,0,1-1.7,3.1,14.4,14.4,0,0,1-2.2,2.7,20.9,20.9,0,0,1-2.9,2.3,3.1,3.1,0,0,0-1,.5l-.9.4-1.8.8-1.9.4-2.8.4-2.8.2H129l-4,15h-9.1l11.5-43Zm-12.6,7.6L131,41.6h11.1a10.6,10.6,0,0,0,3.1-.4,14,14,0,0,0,2.9-.9,6,6,0,0,0,2.3-1.9,9.9,9.9,0,0,0,1.5-3.1,7.1,7.1,0,0,0,.3-3.4,2.6,2.6,0,0,0-1.5-1.9l-2.7-.8a14.2,14.2,0,0,0-3.1-.3H134.5Z" transform="translate(-2 -3)"/><path class="cls-2" d="M165.7,21.2h10.2l4.3,32.1,21.9-32.1h9.6l-29.5,43h-9.3Z" transform="translate(-2 -3)"/><path class="cls-2" d="M236,21.2l6.8,43H232.7L231.5,54H212.8l-6.6,10.2h-9.5l29.7-43ZM217.8,46.3h12.8l-2.1-16.6Z" transform="translate(-2 -3)"/><path class="cls-2" d="M259,64.1l-3.6-.5a7.7,7.7,0,0,1-3.1-1.2,12.5,12.5,0,0,1-2.5-2.6,9.8,9.8,0,0,1-1.6-6.1c.1-1.1.2-2.2.4-3.3s.5-2.4.8-3.6l6.9-25.6h9.1L259,44.8a50.6,50.6,0,0,0-1.1,5.3,12.6,12.6,0,0,0,0,3.9,3.1,3.1,0,0,0,2.2,2.4,15.2,15.2,0,0,0,5.5.8h10.6l-1.8,7.1H259Z" transform="translate(-2 -3)"/><path class="cls-2" d="M301.9,29.4a9.1,9.1,0,0,0-3.6,2,11.9,11.9,0,0,0-2.8,3.1,20.5,20.5,0,0,0-2,4.2h25.2l-2.1,7.5H291.5a17.4,17.4,0,0,0-.5,2.2,18,18,0,0,0-.2,2.2,6.5,6.5,0,0,0,.2,2,14.2,14.2,0,0,0,.8,1.8,5,5,0,0,0,1.2,1.3,2.6,2.6,0,0,0,1.5.7,6.3,6.3,0,0,0,1.9.3h17.4l-2,7.5H292.9l-3.3-.5a9.8,9.8,0,0,1-3-1.1,11.5,11.5,0,0,1-4.8-5.2,12.4,12.4,0,0,1-.9-3.9,30.8,30.8,0,0,1,0-4.3,22.6,22.6,0,0,1,.8-4.4c0-.2.1-.3.1-.5a.9.9,0,0,1,.1-.5c0-.1.1-.2.1-.4s.1-.3.1-.5.1-.3.2-.4.1-.3.1-.5.1-.3.2-.4.1-.3.1-.5a37.8,37.8,0,0,1,4.1-8.8,23.7,23.7,0,0,1,5.5-6.2,21.1,21.1,0,0,1,7-3.6,31.6,31.6,0,0,1,9-1.2h15l-2,7.5H306.4A12.5,12.5,0,0,0,301.9,29.4Z" transform="translate(-2 -3)"/></svg>